<svg width="115" height="23" viewBox="0 0 115 23" fill="none" xmlns="http://www.w3.org/2000/svg">
<path d="M6.704 17.24C5.008 17.24 3.704 16.928 2.792 16.304C1.88 15.664 1.256 14.736 0.92 13.52C0.584 12.304 0.416 10.696 0.416 8.696C0.416 6.712 0.584 5.112 0.92 3.896C1.256 2.664 1.864 1.736 2.744 1.112C3.64 0.471999 4.92 0.151999 6.584 0.151999C7.88 0.151999 9.376 0.328 11.072 0.68L11 2.24C9.384 1.952 7.992 1.808 6.824 1.808C5.576 1.808 4.632 2.032 3.992 2.48C3.352 2.928 2.912 3.648 2.672 4.64C2.448 5.632 2.336 7.072 2.336 8.96C2.336 10.592 2.44 11.872 2.648 12.8C2.872 13.712 3.32 14.408 3.992 14.888C4.664 15.352 5.68 15.584 7.04 15.584C8.144 15.584 9.464 15.44 11 15.152L11.072 16.736C9.424 17.072 7.968 17.24 6.704 17.24ZM13.7827 5H15.5587V17H13.7827V5ZM13.7827 0.199999H15.5587V2.288H13.7827V0.199999ZM19.0093 5H20.7853V5.84C21.5053 5.44 22.1613 5.16 22.7533 5C23.3613 4.84 23.9933 4.76 24.6493 4.76C25.6733 4.76 26.4653 4.952 27.0253 5.336C27.5853 5.72 27.9773 6.336 28.2013 7.184C28.4413 8.016 28.5613 9.176 28.5613 10.664V17H26.7853V10.712C26.7853 9.576 26.7133 8.704 26.5693 8.096C26.4413 7.488 26.2013 7.048 25.8493 6.776C25.4973 6.504 24.9853 6.368 24.3133 6.368C23.7693 6.368 23.2093 6.44 22.6333 6.584C22.0733 6.712 21.6173 6.864 21.2653 7.04L20.8092 7.256V17H19.0093V5ZM36.3879 17.24C34.5639 17.24 33.2679 16.768 32.4999 15.824C31.7479 14.864 31.3719 13.36 31.3719 11.312C31.3719 9.088 31.7799 7.44 32.5959 6.368C33.4119 5.296 34.6919 4.76 36.4359 4.76C38.0359 4.76 39.2279 5.224 40.0119 6.152C40.8119 7.064 41.2119 8.472 41.2119 10.376L41.1159 11.744H33.1959C33.1959 12.736 33.2999 13.512 33.5079 14.072C33.7319 14.632 34.0999 15.04 34.6119 15.296C35.1399 15.536 35.8679 15.656 36.7959 15.656C37.2599 15.656 37.7959 15.648 38.4039 15.632C39.0119 15.6 39.5639 15.56 40.0599 15.512L40.7559 15.44L40.8039 16.856C39.0279 17.112 37.5559 17.24 36.3879 17.24ZM39.4119 10.304C39.4119 8.848 39.1799 7.816 38.7159 7.208C38.2519 6.584 37.4919 6.272 36.4359 6.272C35.3319 6.272 34.5159 6.6 33.9879 7.256C33.4599 7.896 33.1879 8.912 33.1719 10.304H39.4119ZM44.0171 5H45.7931V5.84C46.9931 5.12 48.1931 4.76 49.3931 4.76C50.0491 4.76 50.6411 4.864 51.1691 5.072C51.6971 5.264 52.1131 5.568 52.4171 5.984C53.0091 5.632 53.7051 5.344 54.5051 5.12C55.3051 4.88 56.1211 4.76 56.9531 4.76C57.9291 4.76 58.6891 4.96 59.2331 5.36C59.7771 5.744 60.1611 6.36 60.3851 7.208C60.6251 8.056 60.7451 9.208 60.7451 10.664V17H58.9451V10.712C58.9451 9.576 58.8811 8.704 58.7531 8.096C58.6251 7.488 58.3851 7.048 58.0331 6.776C57.6971 6.504 57.1931 6.368 56.5211 6.368C55.9771 6.368 55.4251 6.44 54.8651 6.584C54.3051 6.712 53.8491 6.864 53.4971 7.04L53.0411 7.256C53.2491 7.768 53.3531 8.936 53.3531 10.76V17H51.5531V10.808C51.5531 9.624 51.4891 8.728 51.3611 8.12C51.2331 7.496 51.0011 7.048 50.6651 6.776C50.3291 6.504 49.8251 6.368 49.1531 6.368C48.6251 6.368 48.0891 6.44 47.5451 6.584C47.0011 6.712 46.5611 6.864 46.2251 7.04L45.8171 7.256V17H44.0171V5ZM66.6956 17.24C65.5916 17.24 64.7516 16.928 64.1756 16.304C63.5996 15.68 63.3116 14.784 63.3116 13.616C63.3116 12.464 63.5996 11.608 64.1756 11.048C64.7676 10.488 65.7036 10.144 66.9836 10.016L70.7516 9.656V8.624C70.7516 7.104 70.0956 6.344 68.7836 6.344C67.4876 6.344 65.9116 6.448 64.0556 6.656L63.9836 5.288C65.6956 4.936 67.2556 4.76 68.6636 4.76C70.0236 4.76 71.0076 5.072 71.6156 5.696C72.2396 6.304 72.5516 7.28 72.5516 8.624V14.768C72.5996 15.36 73.0636 15.712 73.9436 15.824L73.8716 17.24C72.6076 17.24 71.6556 16.92 71.0156 16.28C69.5916 16.92 68.1516 17.24 66.6956 17.24ZM66.9836 15.728C68.0556 15.728 69.1276 15.544 70.1996 15.176L70.7516 14.984V11.024L67.1996 11.36C66.4796 11.424 65.9596 11.632 65.6396 11.984C65.3196 12.336 65.1596 12.848 65.1596 13.52C65.1596 14.992 65.7676 15.728 66.9836 15.728ZM84.455 14.048H78.743L78.095 17H74.783L78.455 0.68H84.743L88.415 17H85.103L84.455 14.048ZM82.175 3.416H81.023L79.367 11.168H83.831L82.175 3.416ZM90.3005 5H93.4925V5.648C94.1165 5.28 94.6365 5.032 95.0525 4.904C95.4845 4.776 95.9405 4.712 96.4205 4.712C97.9565 4.712 99.0925 5.224 99.8285 6.248C100.581 7.256 100.957 8.872 100.957 11.096C100.957 12.632 100.773 13.848 100.405 14.744C100.037 15.64 99.4605 16.288 98.6765 16.688C97.8925 17.088 96.8525 17.288 95.5565 17.288C94.9165 17.288 94.2365 17.224 93.5165 17.096V22.04H90.3005V5ZM95.2445 14.504C96.1405 14.504 96.7725 14.248 97.1405 13.736C97.5085 13.208 97.6925 12.328 97.6925 11.096C97.6925 9.88 97.5245 8.992 97.1885 8.432C96.8525 7.872 96.3005 7.592 95.5325 7.592C94.9725 7.592 94.3965 7.712 93.8045 7.952L93.5165 8.072V14.36C94.2365 14.456 94.8125 14.504 95.2445 14.504ZM103.355 5H106.547V5.648C107.171 5.28 107.691 5.032 108.107 4.904C108.539 4.776 108.995 4.712 109.475 4.712C111.011 4.712 112.147 5.224 112.883 6.248C113.635 7.256 114.011 8.872 114.011 11.096C114.011 12.632 113.827 13.848 113.459 14.744C113.091 15.64 112.515 16.288 111.731 16.688C110.947 17.088 109.907 17.288 108.611 17.288C107.971 17.288 107.291 17.224 106.571 17.096V22.04H103.355V5ZM108.299 14.504C109.195 14.504 109.827 14.248 110.195 13.736C110.563 13.208 110.747 12.328 110.747 11.096C110.747 9.88 110.579 8.992 110.243 8.432C109.907 7.872 109.355 7.592 108.587 7.592C108.027 7.592 107.451 7.712 106.859 7.952L106.571 8.072V14.36C107.291 14.456 107.867 14.504 108.299 14.504Z" fill="black"/>
</svg>
